<svg width="16" height="16" viewBox="0 0 16 16" fill="none" xmlns="http://www.w3.org/2000/svg">
<g id="direction_forward_line_30">
<path id="mono" fill-rule="evenodd" clip-rule="evenodd" d="M9.28292 2.35911C9.17878 2.25497 9.00994 2.25497 8.9058 2.35911L8.24583 3.01908C8.14169 3.12322 8.14169 3.29206 8.24583 3.3962L12.1164 7.26679H1.52706C1.37978 7.26679 1.26039 7.38618 1.26039 7.53345V8.46679C1.26039 8.61406 1.37978 8.73345 1.52706 8.73345H12.1164L8.24583 12.604C8.14169 12.7082 8.14169 12.877 8.24583 12.9812L8.9058 13.6411C9.00994 13.7453 9.17878 13.7453 9.28292 13.6411L14.7354 8.18868C14.8395 8.08454 14.8395 7.9157 14.7354 7.81156L9.28292 2.35911Z" fill="white"/>
</g>
</svg>
