<svg width="30" height="30" viewBox="0 0 30 30" fill="none" xmlns="http://www.w3.org/2000/svg">
<g clip-path="url(#clip0_91_2607)">
<path fill-rule="evenodd" clip-rule="evenodd" d="M12.0604 2.42282C12.9147 -0.0439348 16.4033 -0.0439363 17.2575 2.42282L19.5706 9.10175L26.6374 9.23767C29.2474 9.28787 30.3254 12.6057 28.2434 14.1805L22.6061 18.4442L24.6606 25.2071C25.4194 27.7049 22.5971 29.7554 20.456 28.2619L14.659 24.2181L8.8619 28.2619C6.72085 29.7554 3.89851 27.7049 4.65731 25.2071L6.71181 18.4442L1.07453 14.1805C-1.0075 12.6057 0.0705283 9.28787 2.68054 9.23767L9.74735 9.10175L12.0604 2.42282ZM14.511 3.11372C14.4843 3.13159 14.4495 3.16355 14.4227 3.24094L11.539 11.5678L2.72862 11.7372C2.64673 11.7388 2.60559 11.762 2.58035 11.7818C2.54812 11.8072 2.51498 11.8505 2.49566 11.9099C2.47634 11.9694 2.47773 12.0238 2.4889 12.0633C2.49764 12.0942 2.5173 12.1371 2.58262 12.1866L9.61077 17.5023L7.04937 25.9338C7.02556 26.0122 7.0349 26.0585 7.04599 26.0886C7.06015 26.1271 7.09105 26.172 7.14163 26.2087C7.1922 26.2455 7.24444 26.261 7.28543 26.2626C7.31752 26.2638 7.36443 26.2584 7.4316 26.2115L14.659 21.17L21.8863 26.2115C21.9535 26.2584 22.0004 26.2638 22.0325 26.2626C22.0735 26.261 22.1257 26.2455 22.1763 26.2087C22.2269 26.172 22.2578 26.1271 22.2719 26.0886C22.283 26.0585 22.2924 26.0122 22.2685 25.9338L19.7071 17.5023L26.7353 12.1866C26.8006 12.1371 26.8203 12.0942 26.829 12.0633C26.8402 12.0238 26.8416 11.9694 26.8223 11.9099C26.8029 11.8505 26.7698 11.8072 26.7376 11.7818C26.7123 11.762 26.6712 11.7388 26.5893 11.7372L17.7789 11.5678L14.8952 3.24094C14.8684 3.16355 14.8336 3.13159 14.8069 3.11372C14.7729 3.09091 14.7215 3.07275 14.659 3.07275C14.5964 3.07275 14.5451 3.09091 14.511 3.11372Z" fill="#141618"/>
</g>
<defs>
<clipPath id="clip0_91_2607">
<rect width="30" height="30" fill="white"/>
</clipPath>
</defs>
</svg>
