<svg width="30" height="30" viewBox="0 0 30 30" fill="none" xmlns="http://www.w3.org/2000/svg">
<path d="M17.1167 28.2296C17.1167 25.156 17.1167 22.1118 17.1167 18.9794C17.9402 18.9794 18.7491 18.95 19.5579 18.9941C20.0432 19.0235 20.2638 18.9059 20.3226 18.3618C20.4403 17.2735 20.6462 16.2 20.8226 15.0676C19.5726 15.0676 18.3667 15.0676 17.1314 15.0676C17.1314 14.0823 17.0579 13.1558 17.1461 12.244C17.2637 11.0675 17.9991 10.5528 19.455 10.5087C19.9256 10.494 20.3962 10.5087 20.9109 10.5087C20.9109 9.4057 20.9109 8.34686 20.9109 7.21448C19.3814 6.96448 17.8373 6.72918 16.2931 7.15566C14.249 7.69979 12.9695 9.42041 12.9254 11.6116C12.9107 12.744 12.9254 13.8617 12.9254 15.0382C11.7783 15.0382 10.6901 15.0382 9.55772 15.0382C9.55772 16.347 9.55772 17.6117 9.55772 18.9647C10.646 18.9647 11.7489 18.9647 12.8666 18.9647C12.8666 22.0824 12.8666 25.1266 12.8666 28.1708C8.60182 27.8766 2.33699 23.6854 1.70463 16.2294C1.08697 8.93511 6.33707 2.59675 13.499 1.84673C21.0874 1.06731 27.5581 6.34682 28.2787 13.8323C29.014 21.3618 23.4697 27.3325 17.1167 28.2296Z" fill="#141618"/>
</svg>
