<svg width="30" height="30" viewBox="0 0 30 30" fill="none" xmlns="http://www.w3.org/2000/svg">
<path fill-rule="evenodd" clip-rule="evenodd" d="M6.1054 23.9937C6.90254 24.7575 8.23978 25.3317 10.3535 25.3317H19.6469C21.9878 25.3317 23.2817 24.6963 24.0054 23.9574C24.7398 23.2074 25.332 21.8963 25.332 19.6466V10.3533C25.332 8.38542 24.8556 7.02405 24.1251 6.1872C23.4593 5.42462 22.208 4.66821 19.6469 4.66821H10.3535C8.04926 4.66821 6.74802 5.29969 6.01164 6.04789C5.26707 6.80443 4.66846 8.11875 4.66846 10.3533V19.6467C4.66846 21.9488 5.33036 23.251 6.1054 23.9937ZM10.3535 1.66821C4.65352 1.66821 1.66846 4.84073 1.66846 10.3533V19.6467C1.66846 25.4349 5.07041 28.3317 10.3535 28.3317H19.6469C25.4052 28.3317 28.332 25.1592 28.332 19.6466V10.3533C28.332 5.56264 26.0352 1.66821 19.6469 1.66821H10.3535Z" fill="#141618"/>
<path fill-rule="evenodd" clip-rule="evenodd" d="M15.0187 18.9658C17.2061 18.9658 18.9792 17.1926 18.9792 15.0052C18.9792 12.8179 17.2061 11.0447 15.0187 11.0447C12.8314 11.0447 11.0582 12.8179 11.0582 15.0052C11.0582 17.1926 12.8314 18.9658 15.0187 18.9658ZM15.0187 21.9658C18.8629 21.9658 21.9792 18.8494 21.9792 15.0052C21.9792 11.161 18.8629 8.04468 15.0187 8.04468C11.1745 8.04468 8.05817 11.161 8.05817 15.0052C8.05817 18.8494 11.1745 21.9658 15.0187 21.9658Z" fill="#141618"/>
<path d="M23.7118 8.04468C23.7118 9.00153 22.9361 9.77721 21.9792 9.77721C21.0224 9.77721 20.2467 9.00153 20.2467 8.04468C20.2467 7.08783 21.0224 6.31214 21.9792 6.31214C22.9361 6.31214 23.7118 7.08783 23.7118 8.04468Z" fill="#141618"/>
</svg>
