<svg width="31" height="30" viewBox="0 0 31 30" fill="none" xmlns="http://www.w3.org/2000/svg">
<path d="M28.2198 9.61352C27.534 7.96086 26.5238 6.46245 25.249 5.20683C23.9866 3.93565 22.4857 2.9261 20.8324 2.23603C19.1735 1.55888 17.3955 1.22212 15.6038 1.24576C11.9994 1.24312 8.54106 2.66972 5.98682 5.21283C3.43257 7.75594 1.99087 11.2081 1.97776 14.8124C1.96773 17.1492 2.57219 19.4475 3.73053 21.4769L1.75 28.7554L9.21661 26.7748C11.1921 27.8151 13.391 28.3589 15.6236 28.3593C19.2246 28.3619 22.68 26.9381 25.2337 24.3992C27.7874 21.8604 29.2314 18.4133 29.2497 14.8124C29.2614 13.0277 28.9111 11.259 28.2198 9.61352ZM6.84988 21.0214L6.51319 20.4867C5.43906 18.7859 4.87225 16.8141 4.87924 14.8025C4.88973 11.9616 6.02699 9.24094 8.04139 7.23768C10.0558 5.23442 12.7827 4.11227 15.6236 4.11754C17.0335 4.11224 18.4305 4.38601 19.7341 4.92307C21.0376 5.46014 22.222 6.24988 23.219 7.24678C24.2177 8.23677 25.0095 9.41547 25.5484 10.7143C26.0873 12.0132 26.3626 13.4062 26.3581 14.8124C26.3476 17.6533 25.2104 20.374 23.196 22.3773C21.1816 24.3805 18.4547 25.5027 15.6137 25.4974C13.6951 25.4969 11.8115 24.9841 10.1574 24.012L9.63252 23.705L5.85961 24.6953L6.84988 21.0214Z" fill="#141618"/>
<path d="M10.0088 15.5452C11.4476 17.7017 13.433 19.4377 15.7623 20.5758C16.3861 20.8431 17.0397 21.0808 17.7428 21.2888C18.1883 21.428 18.6525 21.4982 19.1193 21.4967C19.4077 21.4925 19.6955 21.4693 19.9808 21.4274C20.5006 21.324 20.9926 21.1117 21.4244 20.8045C21.8562 20.4973 22.2181 20.1021 22.4862 19.6449C22.7374 19.06 22.7828 18.4072 22.6149 17.7931C22.4626 17.5963 22.2561 17.4483 22.0208 17.3673L21.8524 17.2881C21.8524 17.2881 19.8719 16.2978 19.5451 16.1889C19.355 16.0828 19.1313 16.0546 18.9208 16.1099C18.7103 16.1653 18.5294 16.3001 18.4162 16.486C18.2181 16.7831 17.6042 17.4762 17.4259 17.7436C17.3467 17.8327 17.317 17.8624 17.0892 17.7436L16.8516 17.6347C15.9809 17.2837 15.1795 16.7807 14.4848 16.1493C13.7637 15.5058 13.1429 14.7582 12.6429 13.9311C12.5736 13.8222 12.5736 13.8123 12.742 13.6439C12.8641 13.5178 12.9798 13.3856 13.0886 13.2478L13.2569 13.0497C13.3954 12.8914 13.5059 12.7105 13.5837 12.515V12.4358C13.6501 12.3001 13.6847 12.1511 13.6847 12.0001C13.6847 11.849 13.6501 11.7 13.5837 11.5643C13.5837 11.4653 13.1876 10.6236 12.94 10.0195L12.5637 9.12829C12.2864 8.45491 11.9398 8.35588 11.5734 8.35588H10.9001C10.6879 8.36645 10.4796 8.41684 10.2861 8.50442C10.0971 8.59475 9.9286 8.72282 9.79097 8.88072L9.74145 8.97975C9.35512 9.3582 9.05038 9.81176 8.84601 10.3125C8.64164 10.8132 8.54197 11.3504 8.55313 11.8911C8.65646 13.2127 9.14925 14.474 9.96921 15.5155L10.0088 15.5452Z" fill="#141618"/>
</svg>
