<svg width="109" height="108" viewBox="0 0 109 108" fill="none" xmlns="http://www.w3.org/2000/svg">
<g id="logo / fit">
<path id="Vector" d="M54.3013 2.59839L85.7585 34.0556C85.8785 34.1756 85.9814 34.2956 86.1014 34.3984C102.096 51.5756 101.496 78.13 84.6271 94.5871C68.8213 110.016 43.3299 110.873 26.5641 96.49C7.3298 79.9985 6.50694 50.8728 24.0955 33.2842L33.7298 23.6499L51.3359 43.5746L43.6991 51.7106C38.1773 57.4464 37.0727 66.7985 41.8213 73.1757C48.7098 81.3397 58.7931 81.6252 65.8564 74.8548C71.9996 68.9664 72.0099 59.3928 66.3185 53.1356L54.3184 41.1356C43.6727 30.4899 43.6727 13.2441 54.3184 2.61553L54.3013 2.59839Z" fill="#0057FF"/>
</g>
</svg>
